<mxfile host="Electron" modified="2024-01-11T07:09:17.200Z" agent="Mozilla/5.0 (Windows NT 10.0; Win64; x64) AppleWebKit/537.36 (KHTML, like Gecko) draw.io/22.1.18 Chrome/120.0.6099.199 Electron/28.1.2 Safari/537.36" etag="DR8TEzgnUMJjXEFrCZwp" version="22.1.18" type="device">
  <diagram id="gkjEUp6WCxHkKjdCkwor" name="Seite-1">
    <mxGraphModel dx="1436" dy="606" grid="1" gridSize="10" guides="1" tooltips="1" connect="1" arrows="1" fold="1" page="0" pageScale="1" pageWidth="827" pageHeight="1169" background="none" math="0" shadow="0">
      <root>
        <mxCell id="0" />
        <mxCell id="1" parent="0" />
        <mxCell id="AxnjDYlnfrmsoMh61kGt-1" value="" style="rounded=0;whiteSpace=wrap;html=1;fillOpacity=0;editable=0;movable=1;resizable=1;rotatable=1;deletable=1;locked=0;connectable=0;" parent="1" vertex="1">
          <mxGeometry x="170" y="70" width="510" height="470" as="geometry" />
        </mxCell>
        <mxCell id="AxnjDYlnfrmsoMh61kGt-23" value="Lehrer" style="shape=umlActor;verticalLabelPosition=bottom;verticalAlign=top;html=1;outlineConnect=0;rounded=0;" parent="1" vertex="1">
          <mxGeometry x="80" y="150" width="30" height="60" as="geometry" />
        </mxCell>
        <mxCell id="AxnjDYlnfrmsoMh61kGt-24" value="Schüler" style="shape=umlActor;verticalLabelPosition=bottom;verticalAlign=top;html=1;outlineConnect=0;rounded=0;" parent="1" vertex="1">
          <mxGeometry x="80" y="350" width="30" height="60" as="geometry" />
        </mxCell>
        <mxCell id="AxnjDYlnfrmsoMh61kGt-25" value="Mikrofon Aktivieren" style="ellipse;whiteSpace=wrap;html=1;rounded=0;" parent="1" vertex="1">
          <mxGeometry x="360" y="80" width="120" height="80" as="geometry" />
        </mxCell>
        <mxCell id="AxnjDYlnfrmsoMh61kGt-27" value="Webcam aktivieren" style="ellipse;whiteSpace=wrap;html=1;rounded=0;" parent="1" vertex="1">
          <mxGeometry x="460" y="180" width="120" height="80" as="geometry" />
        </mxCell>
        <mxCell id="AxnjDYlnfrmsoMh61kGt-28" value="online-Unterricht starten" style="ellipse;whiteSpace=wrap;html=1;rounded=0;" parent="1" vertex="1">
          <mxGeometry x="200" y="190" width="120" height="80" as="geometry" />
        </mxCell>
        <mxCell id="AxnjDYlnfrmsoMh61kGt-29" value="In Online Unterricht einloggen" style="ellipse;whiteSpace=wrap;html=1;rounded=0;" parent="1" vertex="1">
          <mxGeometry x="240" y="295" width="120" height="80" as="geometry" />
        </mxCell>
        <mxCell id="AxnjDYlnfrmsoMh61kGt-30" value="" style="endArrow=none;html=1;rounded=0;" parent="1" source="AxnjDYlnfrmsoMh61kGt-24" target="AxnjDYlnfrmsoMh61kGt-29" edge="1">
          <mxGeometry width="50" height="50" relative="1" as="geometry">
            <mxPoint x="60" y="510" as="sourcePoint" />
            <mxPoint x="110" y="460" as="targetPoint" />
          </mxGeometry>
        </mxCell>
        <mxCell id="AxnjDYlnfrmsoMh61kGt-35" value="&amp;lt;&amp;lt;Include&amp;gt;&amp;gt;" style="endArrow=open;endSize=12;dashed=1;html=1;rounded=0;" parent="1" source="AxnjDYlnfrmsoMh61kGt-28" target="AxnjDYlnfrmsoMh61kGt-27" edge="1">
          <mxGeometry width="160" relative="1" as="geometry">
            <mxPoint x="460" y="130" as="sourcePoint" />
            <mxPoint x="610" y="110" as="targetPoint" />
          </mxGeometry>
        </mxCell>
        <mxCell id="AxnjDYlnfrmsoMh61kGt-36" value="link auf Moodle stellen" style="ellipse;whiteSpace=wrap;html=1;rounded=0;" parent="1" vertex="1">
          <mxGeometry x="190" y="80" width="120" height="80" as="geometry" />
        </mxCell>
        <mxCell id="AxnjDYlnfrmsoMh61kGt-37" value="" style="endArrow=none;html=1;rounded=0;" parent="1" source="AxnjDYlnfrmsoMh61kGt-23" target="AxnjDYlnfrmsoMh61kGt-36" edge="1">
          <mxGeometry width="50" height="50" relative="1" as="geometry">
            <mxPoint x="-50" y="350" as="sourcePoint" />
            <mxPoint y="300" as="targetPoint" />
            <Array as="points" />
          </mxGeometry>
        </mxCell>
        <mxCell id="AxnjDYlnfrmsoMh61kGt-38" value="" style="endArrow=none;html=1;rounded=0;" parent="1" source="AxnjDYlnfrmsoMh61kGt-23" target="AxnjDYlnfrmsoMh61kGt-28" edge="1">
          <mxGeometry width="50" height="50" relative="1" as="geometry">
            <mxPoint x="20" y="250" as="sourcePoint" />
            <mxPoint x="30" y="270" as="targetPoint" />
          </mxGeometry>
        </mxCell>
        <mxCell id="AxnjDYlnfrmsoMh61kGt-39" value="&amp;lt;&amp;lt;Include&amp;gt;&amp;gt;" style="endArrow=open;endSize=12;dashed=1;html=1;rounded=0;" parent="1" source="AxnjDYlnfrmsoMh61kGt-28" target="AxnjDYlnfrmsoMh61kGt-25" edge="1">
          <mxGeometry x="-0.0002" width="160" relative="1" as="geometry">
            <mxPoint x="559" y="209" as="sourcePoint" />
            <mxPoint x="388" y="150" as="targetPoint" />
            <mxPoint as="offset" />
          </mxGeometry>
        </mxCell>
        <mxCell id="AxnjDYlnfrmsoMh61kGt-41" value="&amp;lt;&amp;lt;extends&amp;gt;&amp;gt;" style="endArrow=open;endSize=12;dashed=1;html=1;rounded=0;" parent="1" source="AxnjDYlnfrmsoMh61kGt-27" target="AxnjDYlnfrmsoMh61kGt-29" edge="1">
          <mxGeometry x="-0.0002" width="160" relative="1" as="geometry">
            <mxPoint x="392" y="271" as="sourcePoint" />
            <mxPoint x="557" y="209" as="targetPoint" />
            <mxPoint as="offset" />
          </mxGeometry>
        </mxCell>
        <mxCell id="AxnjDYlnfrmsoMh61kGt-42" value="dispatch" style="html=1;verticalAlign=bottom;startArrow=oval;startFill=1;endArrow=block;startSize=8;curved=0;rounded=0;" parent="1" edge="1">
          <mxGeometry width="60" relative="1" as="geometry">
            <mxPoint x="438" y="264" as="sourcePoint" />
            <mxPoint x="548" y="296.3529411764706" as="targetPoint" />
          </mxGeometry>
        </mxCell>
        <mxCell id="AxnjDYlnfrmsoMh61kGt-43" value="wenn webcam vorhanden" style="rounded=0;whiteSpace=wrap;html=1;" parent="1" vertex="1">
          <mxGeometry x="550" y="280" width="120" height="60" as="geometry" />
        </mxCell>
        <mxCell id="AxnjDYlnfrmsoMh61kGt-44" value="unterricht &lt;br&gt;durchführen" style="ellipse;whiteSpace=wrap;html=1;rounded=0;" parent="1" vertex="1">
          <mxGeometry x="450" y="350" width="120" height="80" as="geometry" />
        </mxCell>
        <mxCell id="AxnjDYlnfrmsoMh61kGt-45" value="" style="endArrow=none;html=1;rounded=0;" parent="1" source="AxnjDYlnfrmsoMh61kGt-23" target="AxnjDYlnfrmsoMh61kGt-44" edge="1">
          <mxGeometry width="50" height="50" relative="1" as="geometry">
            <mxPoint x="-40" y="320" as="sourcePoint" />
            <mxPoint x="10" y="270" as="targetPoint" />
            <Array as="points">
              <mxPoint x="230" y="390" />
            </Array>
          </mxGeometry>
        </mxCell>
        <mxCell id="AxnjDYlnfrmsoMh61kGt-46" value="Homo&lt;br&gt;Sapiens" style="shape=umlActor;verticalLabelPosition=bottom;verticalAlign=top;html=1;outlineConnect=0;rounded=0;" parent="1" vertex="1">
          <mxGeometry x="-20" y="260" width="30" height="60" as="geometry" />
        </mxCell>
        <mxCell id="AxnjDYlnfrmsoMh61kGt-47" value="" style="endArrow=classic;html=1;rounded=0;" parent="1" source="AxnjDYlnfrmsoMh61kGt-24" target="AxnjDYlnfrmsoMh61kGt-46" edge="1">
          <mxGeometry width="50" height="50" relative="1" as="geometry">
            <mxPoint x="30" y="370" as="sourcePoint" />
            <mxPoint x="80" y="320" as="targetPoint" />
          </mxGeometry>
        </mxCell>
        <mxCell id="AxnjDYlnfrmsoMh61kGt-48" value="" style="endArrow=classic;html=1;rounded=0;" parent="1" source="AxnjDYlnfrmsoMh61kGt-23" target="AxnjDYlnfrmsoMh61kGt-46" edge="1">
          <mxGeometry width="50" height="50" relative="1" as="geometry">
            <mxPoint x="40" y="330" as="sourcePoint" />
            <mxPoint x="90" y="280" as="targetPoint" />
          </mxGeometry>
        </mxCell>
        <mxCell id="AxnjDYlnfrmsoMh61kGt-52" value="Arbeitsergebnisse Vortragen" style="ellipse;whiteSpace=wrap;html=1;rounded=0;" parent="1" vertex="1">
          <mxGeometry x="220" y="420" width="120" height="80" as="geometry" />
        </mxCell>
        <mxCell id="AxnjDYlnfrmsoMh61kGt-54" value="Wenn Schüler Aufgaben bekommen haben" style="rounded=0;whiteSpace=wrap;html=1;" parent="1" vertex="1">
          <mxGeometry x="440" y="470" width="120" height="60" as="geometry" />
        </mxCell>
        <mxCell id="AxnjDYlnfrmsoMh61kGt-56" value="&amp;lt;&amp;lt;extends&amp;gt;&amp;gt;" style="endArrow=open;endSize=12;dashed=1;html=1;rounded=0;" parent="1" source="AxnjDYlnfrmsoMh61kGt-52" target="AxnjDYlnfrmsoMh61kGt-44" edge="1">
          <mxGeometry x="-0.0002" width="160" relative="1" as="geometry">
            <mxPoint x="321" y="420" as="sourcePoint" />
            <mxPoint x="329" y="180" as="targetPoint" />
            <mxPoint as="offset" />
          </mxGeometry>
        </mxCell>
        <mxCell id="AxnjDYlnfrmsoMh61kGt-57" value="dispatch" style="html=1;verticalAlign=bottom;startArrow=oval;startFill=1;endArrow=block;startSize=8;curved=0;rounded=0;" parent="1" target="AxnjDYlnfrmsoMh61kGt-54" edge="1">
          <mxGeometry width="60" relative="1" as="geometry">
            <mxPoint x="350" y="440" as="sourcePoint" />
            <mxPoint x="605" y="660" as="targetPoint" />
          </mxGeometry>
        </mxCell>
        <mxCell id="AxnjDYlnfrmsoMh61kGt-58" value="" style="endArrow=none;html=1;rounded=0;" parent="1" source="AxnjDYlnfrmsoMh61kGt-24" target="AxnjDYlnfrmsoMh61kGt-52" edge="1">
          <mxGeometry width="50" height="50" relative="1" as="geometry">
            <mxPoint x="60" y="620" as="sourcePoint" />
            <mxPoint x="110" y="570" as="targetPoint" />
          </mxGeometry>
        </mxCell>
        <mxCell id="AxnjDYlnfrmsoMh61kGt-59" value="BigBlueButton" style="text;html=1;strokeColor=none;fillColor=none;align=center;verticalAlign=middle;whiteSpace=wrap;rounded=0;" parent="1" vertex="1">
          <mxGeometry x="600" y="70" width="60" height="30" as="geometry" />
        </mxCell>
        <mxCell id="VDXBRnPkjGSCk3aptUOR-1" value="&lt;i style=&quot;&quot;&gt;(Für Extrapunkte)&lt;/i&gt;" style="text;html=1;strokeColor=none;fillColor=none;align=center;verticalAlign=middle;whiteSpace=wrap;rounded=0;" vertex="1" parent="1">
          <mxGeometry x="-35" y="375" width="60" height="30" as="geometry" />
        </mxCell>
      </root>
    </mxGraphModel>
  </diagram>
</mxfile>
